<?xml version="1.0" encoding="iso-8859-1"?>
<!-- Generator: Adobe Illustrator 19.0.0, SVG Export Plug-In . SVG Version: 6.00 Build 0)  -->
<svg version="1.1" id="Capa_1" xmlns="http://www.w3.org/2000/svg" xmlns:xlink="http://www.w3.org/1999/xlink" x="0px" y="0px"
	 viewBox="0 0 480 480" style="enable-background:new 0 0 480 480;" xml:space="preserve">
<g>
	<g>
		<path d="M440,432h-49.809L279.742,5.992C278.828,2.465,275.645,0,272,0h-64c-3.645,0-6.828,2.465-7.742,5.992L89.809,432H40
			c-4.418,0-8,3.582-8,8v32c0,4.418,3.582,8,8,8h400c4.418,0,8-3.582,8-8v-32C448,435.582,444.418,432,440,432z M214.191,16h51.617
			l8.296,32h-68.21L214.191,16z M201.747,64h76.507l16.593,64H185.154L201.747,64z M181.005,144h117.989l6.222,24H174.783
			L181.005,144z M170.635,184h138.73l16.593,64H154.042L170.635,184z M432,464H48v-16h48c3.645,0,6.828-2.465,7.742-5.992
			L149.894,264h180.213l46.151,178.008c0.914,3.527,4.098,5.992,7.742,5.992h48V464z"/>
	</g>
</g>
<g>
	<g>
		<rect x="128" y="432" width="168" height="16"/>
	</g>
</g>
<g>
	<g>
		<rect x="312" y="432" width="40" height="16"/>
	</g>
</g>
<g>
</g>
<g>
</g>
<g>
</g>
<g>
</g>
<g>
</g>
<g>
</g>
<g>
</g>
<g>
</g>
<g>
</g>
<g>
</g>
<g>
</g>
<g>
</g>
<g>
</g>
<g>
</g>
<g>
</g>
</svg>
