<?xml version="1.0" encoding="iso-8859-1"?>
<!-- Generator: Adobe Illustrator 19.0.0, SVG Export Plug-In . SVG Version: 6.00 Build 0)  -->
<svg version="1.1" id="Capa_1" xmlns="http://www.w3.org/2000/svg" xmlns:xlink="http://www.w3.org/1999/xlink" x="0px" y="0px"
	 viewBox="0 0 488 488" style="enable-background:new 0 0 488 488;" xml:space="preserve">
<g>
	<g>
		<path d="M488,292c0-4.963-2.527-8.859-5.169-11.952c-1.036-5.372-2.744-10.53-5.057-15.369c0.349-4.116,0.16-8.647-2.759-12.659
			c-2.967-4.07-7.29-5.641-11.36-6.576c-3.861-3.627-8.166-6.779-12.843-9.373c-2.124-3.514-5.034-7.21-9.797-8.758
			c-4.125-1.332-7.963-0.498-11.409,0.798l-260.939-84.396c-2.084-2.779-4.636-5.402-8.254-6.902
			c-4.66-1.938-9.449-1.35-13.667-0.442c-5.84-1.67-11.791-2.863-17.834-3.558C125.342,130.354,121.121,128,116,128
			c-5.113,0-9.329,2.347-12.897,4.803c-6.101,0.704-12.035,1.931-17.799,3.578c-4.219-0.914-9.014-1.521-13.71,0.424
			c-4.715,1.956-7.696,5.763-10.043,9.407c-5.284,2.954-10.284,6.342-14.998,10.083c-4.272,0.776-8.957,2.063-12.576,5.678
			c-3.613,3.613-4.9,8.298-5.676,12.572c-3.743,4.715-7.132,9.717-10.087,15.002c-3.645,2.349-7.454,5.332-9.409,10.047
			c-1.941,4.685-1.337,9.478-0.422,13.703c-1.648,5.765-2.875,11.701-3.579,17.803C2.346,234.669,0,238.888,0,244
			c0,5.14,2.372,9.375,4.844,12.956C5.56,263.037,6.701,269,8.368,274.763c-0.907,4.21-1.495,8.979,0.437,13.64
			c2.015,4.859,5.992,7.873,9.731,10.252c2.875,5.081,6.102,9.929,9.709,14.489c0.773,4.355,2.033,9.176,5.732,12.875
			c3.687,3.687,8.487,4.951,12.828,5.723c4.56,3.608,9.43,6.821,14.524,9.699c2.382,3.747,5.398,7.732,10.257,9.747
			c4.726,1.965,9.574,1.334,13.838,0.403c5.656,1.615,11.5,2.769,17.486,3.472c3.609,2.503,7.882,4.938,13.09,4.938
			c4.535,0,8.359-1.869,11.661-4h269.99c0.464,0.209,0.829,0.524,1.333,0.688c1.508,0.488,2.977,0.691,4.406,0.691
			c2.4,0,4.668-0.597,6.795-1.379H420c2.807,0,5.551-0.244,8.264-0.596c3.769,1.586,8.096,2.792,12.76,1.283
			c4.662-1.517,7.561-5.105,9.674-8.555c4.789-2.629,9.17-5.89,13.117-9.609c4.022-0.94,8.272-2.527,11.194-6.543
			c2.91-3.998,3.107-8.518,2.762-12.622c2.305-4.845,4.043-10,5.071-15.417C485.479,300.851,488,296.957,488,292z M158.414,330.875
			c-1.164,1.91-3.109,5.113-4.133,5.539c-0.953,0.387-4.68-0.508-6.68-0.992c-4.125-1-8.797-2.133-13.641-1.172
			c-4.441,0.876-8.073,3.401-11.291,5.75h-12.084c-0.559-0.183-1.143-0.289-1.735-0.344c-3.111-2.248-6.59-4.572-10.819-5.406
			c-1.297-0.258-2.578-0.363-3.836-0.363c-2.815,0-5.49,0.552-8.03,1.143c-4.643-1.53-9.146-3.353-13.444-5.543
			c-1.993-3.217-4.303-6.614-7.83-8.979c-3.515-2.351-7.5-3.209-11.213-3.825c-3.725-3.201-7.179-6.686-10.376-10.408
			c-0.617-3.702-1.478-7.671-3.817-11.17c-2.387-3.563-5.821-5.887-9.069-7.89c-2.162-4.237-3.941-8.682-5.46-13.238
			c0.871-3.714,1.633-7.79,0.795-12.017c-0.833-4.222-3.157-7.7-5.402-10.805C20.168,248.785,20,246.411,20,244
			c0-2.424,0.187-4.802,0.364-7.182c2.24-3.097,4.556-6.568,5.394-10.787c0.844-4.284,0.047-8.416-0.839-12.171
			c1.499-4.518,3.345-8.87,5.47-13.063c3.257-2.007,6.71-4.334,9.104-7.911c2.408-3.591,3.247-7.68,3.866-11.467
			c3.104-3.598,6.466-6.96,10.064-10.064c3.787-0.618,7.88-1.462,11.476-3.871c3.57-2.394,5.9-5.844,7.905-9.099
			c4.192-2.124,8.542-3.969,13.058-5.467c3.76,0.889,7.896,1.687,12.178,0.832c4.212-0.831,7.689-3.146,10.784-5.386
			c2.378-0.177,4.754-0.364,7.177-0.364c2.402,0,4.782,0.176,7.162,0.353c3.108,2.246,6.583,4.565,10.807,5.397
			c4.3,0.859,8.413,0.06,12.152-0.824c2.501,0.822,5.001,1.674,7.496,2.71l4.847,1.568c2.177,3.569,4.639,7.601,8.645,10.287
			c4.07,2.723,8.797,3.465,12.969,4.117c2.195,0.348,5.875,0.922,6.633,1.688c0.766,0.762,1.344,4.438,1.688,6.633
			c0.656,4.172,1.398,8.898,4.117,12.965c2.703,4.035,6.766,6.508,10.359,8.691c1.914,1.16,5.109,3.109,5.539,4.137
			c0.383,0.977-0.516,4.684-0.992,6.676c-1,4.121-2.133,8.797-1.172,13.641c0.93,4.711,3.719,8.523,6.18,11.891
			c1.422,1.945,3.57,4.887,3.57,6.07s-2.148,4.129-3.57,6.074c-2.461,3.363-5.25,7.176-6.188,11.895
			c-0.953,4.84,0.18,9.516,1.18,13.637c0.516,2.133,1.375,5.699,0.992,6.676c-0.422,1.027-3.625,2.973-5.539,4.137
			c-3.594,2.184-7.664,4.656-10.367,8.695c-2.727,4.066-3.461,8.797-4.117,12.973c-0.344,2.195-0.922,5.871-1.68,6.625
			c-0.758,0.762-4.438,1.34-6.633,1.684c-4.172,0.652-8.906,1.395-12.977,4.121C163.07,323.219,160.594,327.285,158.414,330.875z
			 M332,340v-8h-16v8h-16v-8h-16v8h-16v-8h-16v8h-16v-8h-16v8h-48.427c0.164-0.268,0.354-0.555,0.513-0.816
			c1.258-2.066,2.82-4.641,3.922-5.375c1.133-0.758,4.133-1.23,6.547-1.605c4.906-0.77,11.016-1.727,15.469-6.176
			c4.445-4.445,5.406-10.555,6.172-15.465c0.375-2.414,0.852-5.414,1.609-6.551c0.734-1.102,3.313-2.664,5.375-3.922
			c4.273-2.594,9.586-5.824,12.016-11.684c2.391-5.77,0.938-11.754-0.227-16.566c-0.609-2.52-1.305-5.379-1.031-6.762
			c0.25-1.242,2-3.637,3.406-5.563C228.313,255.457,232,250.406,232,244s-3.688-11.457-6.656-15.512
			c-1.406-1.926-3.156-4.324-3.398-5.559c-0.281-1.387,0.414-4.246,1.023-6.766c1.164-4.813,2.617-10.797,0.227-16.566
			c-2.43-5.859-7.742-9.09-12.008-11.684c-2.07-1.258-4.641-2.82-5.375-3.918c-0.758-1.133-1.234-4.137-1.609-6.547
			c-0.287-1.823-0.667-3.819-1.174-5.827l35.26,11.408L236,190.883l15.359,4.477l2.158-7.402l15.231,4.928l-2.029,6.951
			l15.359,4.484l1.9-6.508l15.228,4.927l-1.769,6.058l15.359,4.484l1.64-5.615l15.233,4.929l-1.506,5.167l15.359,4.477l1.375-4.717
			l46.693,15.106c-1.748,2.141-3.058,4.508-4.154,6.521c-0.82,1.504-2.055,3.781-2.703,4.305c-0.719,0.484-3.422,0.992-5.031,1.297
			c-4.859,0.914-10.914,2.051-14.711,7.27c-3.773,5.184-3,11.266-2.375,16.148c0.211,1.66,0.563,4.438,0.32,5.254
			c-0.313,0.773-2.047,2.598-3.195,3.809C356.477,280.676,352,285.395,352,292s4.477,11.324,7.742,14.77
			c1.148,1.211,2.883,3.035,3.18,3.773c0.258,0.852-0.102,3.625-0.313,5.281c-0.625,4.891-1.398,10.969,2.375,16.156
			c3.805,5.219,9.859,6.355,14.719,7.27c1.003,0.19,2.391,0.461,3.495,0.75H332z M467.762,296.713
			c-2.312,2.47-4.718,5.264-5.902,8.889c-1.184,3.646-0.93,7.315-0.528,10.685c-1.589,2.695-3.431,5.216-5.498,7.541
			c-3.324,0.654-6.888,1.533-9.974,3.778c-3.092,2.249-5.021,5.391-6.661,8.36c-2.792,1.224-5.721,2.18-8.758,2.856
			c-3.11-1.434-6.557-2.822-10.44-2.822c-4.492,0-8.43,1.855-11.898,3.492c-0.325,0.154-0.727,0.334-1.101,0.508h-3.886
			c-0.578-0.93-1.172-1.971-1.623-2.793c-1.789-3.301-3.828-7.039-7.344-9.602c-3.555-2.586-7.773-3.379-11.484-4.078
			c-1.359-0.258-3.492-0.656-4.57-1.07c-0.055-1.125,0.203-3.172,0.391-4.605c0.477-3.77,1.023-8.039-0.344-12.254
			c-1.336-4.086-4.234-7.145-6.789-9.84c-1.016-1.07-2.633-2.777-3.219-3.758c0.586-0.98,2.203-2.688,3.219-3.758
			c2.555-2.695,5.453-5.754,6.789-9.844c1.367-4.211,0.828-8.48,0.344-12.246c-0.18-1.438-0.438-3.484-0.383-4.613
			c1.078-0.41,3.203-0.813,4.555-1.066c3.719-0.699,7.93-1.492,11.484-4.078c3.523-2.563,5.563-6.301,7.352-9.602
			c0.672-1.227,1.711-3.145,2.445-4.051c1.078,0.305,2.891,1.164,4.164,1.766C411.57,246.145,415.508,248,420,248
			c3.745,0,7.084-1.292,10.108-2.669c3.238,0.702,6.327,1.72,9.276,3.039c1.601,2.869,3.499,5.861,6.467,8.025
			c3.048,2.218,6.569,3.103,9.855,3.754c2.11,2.362,4.003,4.905,5.618,7.639c-0.393,3.35-0.64,6.993,0.535,10.614
			c1.146,3.506,3.439,6.235,5.682,8.648c0.174,1.646,0.458,3.266,0.458,4.95C468,293.591,467.914,295.161,467.762,296.713z"/>
	</g>
</g>
<g>
	<g>
		<path d="M420,268c-13.234,0-24,10.766-24,24s10.766,24,24,24s24-10.766,24-24S433.234,268,420,268z M420,300c-4.414,0-8-3.59-8-8
			s3.586-8,8-8s8,3.59,8,8S424.414,300,420,300z"/>
	</g>
</g>
<g>
	<g>
		<path d="M116,212c-17.648,0-32,14.355-32,32s14.352,32,32,32s32-14.355,32-32S133.648,212,116,212z M116,260
			c-8.82,0-16-7.176-16-16s7.18-16,16-16s16,7.176,16,16S124.82,260,116,260z"/>
	</g>
</g>
<g>
	<g>
		<path d="M151.563,172.32l-7.125,14.328C166.375,197.547,180,219.523,180,244c0,35.289-28.711,64-64,64s-64-28.711-64-64
			s28.711-64,64-64v-16c-44.109,0-80,35.887-80,80s35.891,80,80,80s80-35.887,80-80C196,213.406,178.969,185.941,151.563,172.32z"/>
	</g>
</g>
<g>
</g>
<g>
</g>
<g>
</g>
<g>
</g>
<g>
</g>
<g>
</g>
<g>
</g>
<g>
</g>
<g>
</g>
<g>
</g>
<g>
</g>
<g>
</g>
<g>
</g>
<g>
</g>
<g>
</g>
</svg>
