<?xml version="1.0" encoding="iso-8859-1"?>
<!-- Generator: Adobe Illustrator 19.0.0, SVG Export Plug-In . SVG Version: 6.00 Build 0)  -->
<svg version="1.1" id="Capa_1" xmlns="http://www.w3.org/2000/svg" xmlns:xlink="http://www.w3.org/1999/xlink" x="0px" y="0px"
	 viewBox="0 0 480 480" style="enable-background:new 0 0 480 480;" xml:space="preserve">
<g>
	<g>
		<path d="M477.656,45.658l-40-40c-3.125-3.125-8.188-3.125-11.313,0l-23.437,23.437l-23.352,15.563l0.088,0.132
			c-0.438,0.291-0.921,0.482-1.307,0.868l-28.959,28.966c-7.79-1.784-16.288,0.289-22.346,6.347L320,88.002l-2.344-2.344
			l-11.313,11.313l2.344,2.344L296,112.002l-2.344-2.344l-11.313,11.313l2.344,2.344l-37.792,37.792
			c-12.084-6.378-27.364-4.636-37.521,5.521l-13.318,13.318l-37.627,7.525c-1.547,0.309-2.969,1.07-4.086,2.188l-16,16
			c-1.117,1.117-1.879,2.539-2.188,4.086l-7.525,37.627l-37.318,37.318c-10.156,10.156-11.899,25.437-5.521,37.521l-72.136,72.136
			c-4.531,4.531-7.027,10.559-7.027,16.969c0,5.945,2.228,11.507,6.153,15.905L2.344,437.658c-3.125,3.125-3.125,8.188,0,11.313
			l24,24l11.313-11.313l-18.344-18.344L24,438.627l31.031,31.031c4.531,4.531,10.559,7.027,16.969,7.027s12.438-2.496,16.969-7.027
			l72.135-72.135c4.661,2.461,9.749,3.838,14.896,3.838c8.195,0,16.387-3.121,22.625-9.359l37.318-37.318l37.627-7.525
			c1.547-0.309,2.969-1.07,4.086-2.188l16-16c1.117-1.117,1.879-2.539,2.188-4.086l7.525-37.627l13.318-13.318
			c10.156-10.156,11.898-25.437,5.521-37.521L360,198.627l2.344,2.344l11.313-11.313l-2.344-2.344L384,174.627l2.344,2.344
			l11.313-11.313l-2.344-2.344l7.031-7.031c6.058-6.056,8.131-14.557,6.347-22.348l28.966-28.973
			c0.377-0.377,0.581-0.867,0.872-1.304l0.128,0.085l15.562-23.335l23.438-23.438C480.781,53.846,480.781,48.783,477.656,45.658z
			 M77.656,458.346c-3.023,3.016-8.289,3.016-11.313,0l-41.375-41.375c-1.508-1.512-2.34-3.52-2.34-5.656
			c0-1.989,0.784-3.829,2.1-5.298l59.207,46.05L77.656,458.346z M95.338,440.664l-59.273-46.102l12.598-12.598l59.273,46.102
			L95.338,440.664z M119.338,416.664l-59.273-46.102l12.598-12.598l59.273,46.102L119.338,416.664z M143.338,392.664l-59.273-46.102
			L96,334.627l52.688,52.688L143.338,392.664z M187.313,380.689c-6.242,6.234-16.383,6.234-22.625,0l-62.063-62.063
			c-6.238-6.238-6.238-16.387,0-22.625l1.375-1.375l84.688,84.688L187.313,380.689z M200,368.002l-84.688-84.688L136,262.627
			l84.688,84.688L200,368.002z M283.086,307.088l-29.43-29.43l-11.313,11.313l34.342,34.342l-8.631,8.631l-33.426,6.688
			l-89.945-89.945l6.688-33.426l8.631-8.631l34.342,34.342l11.313-11.313l-29.43-29.43l21.145-4.23l89.945,89.945L283.086,307.088z
			 M305.375,262.627L296,272.002l-84.688-84.688l9.375-9.375c6.242-6.234,16.383-6.234,22.625,0l62.063,62.063
			C311.613,246.24,311.613,256.389,305.375,262.627z M312,224.002l-52.688-52.688L296,134.627l52.688,52.688L312,224.002z
			 M360,176.002l-52.688-52.688L320,110.627l52.688,52.688L360,176.002z M391.031,144.971L384,152.002l-52.688-52.688l7.031-7.031
			c3.023-3.016,8.289-3.016,11.313,0l41.375,41.375c1.508,1.512,2.34,3.52,2.34,5.656S392.539,143.459,391.031,144.971z
			 M399.999,120.001l-36.688-36.688l20.681-20.687l36.695,36.68L399.999,120.001z M430.756,86.753l-34.206-34.194l10.43-6.951
			l30.725,30.725L430.756,86.753z M448,64.002l-28.688-28.688L432,22.627l28.688,28.688L448,64.002z"/>
	</g>
</g>
<g>
</g>
<g>
</g>
<g>
</g>
<g>
</g>
<g>
</g>
<g>
</g>
<g>
</g>
<g>
</g>
<g>
</g>
<g>
</g>
<g>
</g>
<g>
</g>
<g>
</g>
<g>
</g>
<g>
</g>
</svg>
