<?xml version="1.0" encoding="iso-8859-1"?>
<!-- Generator: Adobe Illustrator 19.0.0, SVG Export Plug-In . SVG Version: 6.00 Build 0)  -->
<svg version="1.1" id="Capa_1" xmlns="http://www.w3.org/2000/svg" xmlns:xlink="http://www.w3.org/1999/xlink" x="0px" y="0px"
	 viewBox="0 0 480 480" style="enable-background:new 0 0 480 480;" xml:space="preserve">
<g>
	<g>
		<path d="M436.824,215.5l-95.918-22.563l-52.75-79.125C280.727,102.656,268.285,96,254.875,96H95.063
			c-17.242,0-32.492,10.992-37.945,27.352l-19.844,59.523c-2.668,8-7.637,14.898-14.379,19.953C8.559,213.586,0,230.703,0,248.617
			V312c0,13.234,10.766,24,24,24h16.639c3.903,27.09,27.205,48,55.361,48s51.458-20.91,55.361-48h169.278
			c3.903,27.09,27.205,48,55.361,48s51.458-20.91,55.361-48H456c13.234,0,24-10.766,24-24v-41.984
			C480,243.898,462.246,221.484,436.824,215.5z M96,368c-22.055,0-40-17.945-40-40s17.945-40,40-40s40,17.945,40,40
			S118.055,368,96,368z M376,368c-22.055,0-40-17.945-40-40s17.945-40,40-40s40,17.945,40,40S398.055,368,376,368z M464,312
			c0,4.414-3.59,8-8,8h-24.639c-3.903-27.09-27.205-48-55.361-48s-51.458,20.91-55.361,48H151.361c-3.903-27.09-27.205-48-55.361-48
			s-51.458,20.91-55.361,48H24c-4.41,0-8-3.586-8-8v-63.383c0-12.906,6.168-25.242,16.496-32.992
			c9.355-7.016,16.254-16.586,19.957-27.688l19.844-59.523C75.566,118.594,84.719,112,95.063,112h159.813
			c8.047,0,15.508,3.992,19.969,10.688l54.5,81.75c1.125,1.688,2.848,2.883,4.824,3.352l98.992,23.289
			c18.156,4.273,30.84,20.281,30.84,38.938V312z"/>
	</g>
</g>
<g>
	<g>
		<rect x="368" y="320" width="16" height="16"/>
	</g>
</g>
<g>
	<g>
		<rect x="88" y="320" width="16" height="16"/>
	</g>
</g>
<g>
	<g>
		<path d="M168,160h-64c-13.234,0-24,10.766-24,24v32c0,13.234,10.766,24,24,24h64c13.234,0,24-10.766,24-24v-32
			C192,170.766,181.234,160,168,160z M176,216c0,4.414-3.59,8-8,8h-64c-4.41,0-8-3.586-8-8v-32c0-4.414,3.59-8,8-8h64
			c4.41,0,8,3.586,8,8V216z"/>
	</g>
</g>
<g>
	<g>
		<rect x="112" y="192" width="16" height="16"/>
	</g>
</g>
<g>
	<g>
		<rect x="144" y="192" width="16" height="16"/>
	</g>
</g>
<g>
	<g>
		<rect x="208" y="192" width="16" height="16"/>
	</g>
</g>
<g>
	<g>
		<path d="M257.824,141.125l-9.313,13.016C263.219,164.664,272,181.68,272,199.664s-8.781,35.008-23.488,45.531l9.313,13.016
			C276.719,244.688,288,222.805,288,199.664C288,176.531,276.719,154.648,257.824,141.125z"/>
	</g>
</g>
<g>
	<g>
		<path d="M239.215,167.172l-9.313,13.016c6.324,4.523,10.098,11.805,10.098,19.477s-3.773,14.953-10.098,19.477l9.313,13.016
			C249.727,224.633,256,212.484,256,199.664C256,186.836,249.727,174.695,239.215,167.172z"/>
	</g>
</g>
<g>
</g>
<g>
</g>
<g>
</g>
<g>
</g>
<g>
</g>
<g>
</g>
<g>
</g>
<g>
</g>
<g>
</g>
<g>
</g>
<g>
</g>
<g>
</g>
<g>
</g>
<g>
</g>
<g>
</g>
</svg>
