<?xml version="1.0" encoding="iso-8859-1"?>
<!-- Generator: Adobe Illustrator 19.0.0, SVG Export Plug-In . SVG Version: 6.00 Build 0)  -->
<svg version="1.1" id="Capa_1" xmlns="http://www.w3.org/2000/svg" xmlns:xlink="http://www.w3.org/1999/xlink" x="0px" y="0px"
	 viewBox="0 0 480 480" style="enable-background:new 0 0 480 480;" xml:space="preserve">
<g>
	<g>
		<path d="M436.824,215.5l-95.918-22.563l-52.75-79.125C280.727,102.656,268.285,96,254.875,96H95.063
			c-17.242,0-32.492,10.992-37.945,27.352l-19.844,59.523c-2.668,8-7.637,14.898-14.379,19.953C8.559,213.586,0,230.703,0,248.617
			V312c0,13.234,10.766,24,24,24h16.639c3.903,27.09,27.205,48,55.361,48s51.458-20.91,55.361-48h169.278
			c3.903,27.09,27.205,48,55.361,48s51.458-20.91,55.361-48H456c13.234,0,24-10.766,24-24v-41.984
			C480,243.898,462.246,221.484,436.824,215.5z M96,368c-22.055,0-40-17.945-40-40s17.945-40,40-40s40,17.945,40,40
			S118.055,368,96,368z M376,368c-22.055,0-40-17.945-40-40s17.945-40,40-40s40,17.945,40,40S398.055,368,376,368z M464,312
			c0,4.414-3.59,8-8,8h-24.639c-3.903-27.09-27.205-48-55.361-48s-51.458,20.91-55.361,48H151.361c-3.903-27.09-27.205-48-55.361-48
			s-51.458,20.91-55.361,48H24c-4.41,0-8-3.586-8-8v-63.383c0-12.906,6.168-25.242,16.496-32.992
			c9.355-7.016,16.254-16.586,19.957-27.688l19.844-59.523C75.566,118.594,84.719,112,95.063,112h159.813
			c8.047,0,15.508,3.992,19.969,10.688l54.5,81.75c1.125,1.688,2.848,2.883,4.824,3.352l98.992,23.289
			c18.156,4.273,30.84,20.281,30.84,38.938V312z"/>
	</g>
</g>
<g>
	<g>
		<rect x="368" y="320" width="16" height="16"/>
	</g>
</g>
<g>
	<g>
		<rect x="88" y="320" width="16" height="16"/>
	</g>
</g>
<g>
	<g>
		<path d="M264,280V160c0-4.422-3.582-8-8-8h-64c-4.418,0-8,3.578-8,8v24.203c-22.392,2.031-40,20.89-40,43.797
			c0,6.617-5.383,12-12,12s-12-5.383-12-12v-28c0-2.125-0.844-4.156-2.344-5.656L115.313,192H128v-16H96
			c-2.047,0-4.094,0.781-5.656,2.344l-24,24c-1.5,1.5-2.344,3.531-2.344,5.656v16h16v-12.688l16-16l8,8V228
			c0,15.438,12.563,28,28,28s28-12.563,28-28c0-14.068,10.467-25.634,24-27.596V280h-16v16h24h64h24v-16H264z M248,280h-48V168h48
			V280z"/>
	</g>
</g>
<g>
	<g>
		<rect x="208" y="184" width="32" height="16"/>
	</g>
</g>
<g>
</g>
<g>
</g>
<g>
</g>
<g>
</g>
<g>
</g>
<g>
</g>
<g>
</g>
<g>
</g>
<g>
</g>
<g>
</g>
<g>
</g>
<g>
</g>
<g>
</g>
<g>
</g>
<g>
</g>
</svg>
