<?xml version="1.0" encoding="iso-8859-1"?>
<!-- Generator: Adobe Illustrator 19.0.0, SVG Export Plug-In . SVG Version: 6.00 Build 0)  -->
<svg version="1.1" id="Capa_1" xmlns="http://www.w3.org/2000/svg" xmlns:xlink="http://www.w3.org/1999/xlink" x="0px" y="0px"
	 viewBox="0 0 480.007 480.007" style="enable-background:new 0 0 480.007 480.007;" xml:space="preserve">
<g>
	<g>
		<path d="M235.503,353.96l-10.586-26.742l-14.875,5.891l7.641,19.305l-44.629,17.672l-7.637-19.281
			c-1.297-3.281-4.574-5.391-8.117-5.023c-5.973,0.5-12.117,0.5-18.09,0c-3.555-0.414-6.82,1.742-8.117,5.023l-7.633,19.289
			l-44.633-17.664l7.637-19.305c1.301-3.289,0.289-7.039-2.488-9.227c-6.441-5.078-12.289-10.922-17.379-17.375
			c-2.184-2.773-5.938-3.789-9.227-2.484l-19.301,7.641l-17.672-44.633l19.285-7.633c3.289-1.305,5.332-4.609,5.023-8.133
			c-0.262-2.984-0.461-5.984-0.461-9.039c0-3.047,0.199-6.047,0.457-9.031c0.305-3.523-1.738-6.828-5.027-8.125l-19.281-7.625
			l17.664-44.633l19.305,7.633c3.289,1.32,7.039,0.289,9.223-2.484c5.082-6.445,10.93-12.297,17.379-17.383
			c2.777-2.188,3.785-5.938,2.484-9.227l-7.645-19.297l44.629-17.68l7.637,19.289c1.305,3.297,4.664,5.406,8.133,5.023
			c5.969-0.508,12.094-0.516,18.055,0c3.477,0.328,6.832-1.734,8.137-5.023l7.637-19.289l26.035,10.305l5.891-14.875l-33.477-13.25
			c-1.977-0.781-4.172-0.742-6.125,0.094c-1.945,0.844-3.477,2.43-4.258,4.398l-8.426,21.289c-2.945-0.141-5.934-0.141-8.879,0
			l-8.43-21.289c-0.781-1.969-2.313-3.555-4.262-4.398c-1.945-0.836-4.156-0.875-6.121-0.094l-59.504,23.57
			c-4.109,1.625-6.121,6.273-4.492,10.383l8.453,21.344c-4.117,3.594-7.992,7.469-11.582,11.586l-21.352-8.445
			c-4.121-1.633-8.754,0.391-10.379,4.492L2.573,219.007c-0.781,1.977-0.746,4.18,0.098,6.125c0.84,1.945,2.426,3.477,4.398,4.258
			l21.285,8.422c-0.07,1.469-0.109,2.945-0.109,4.43c0,1.492,0.039,2.977,0.109,4.445l-21.285,8.43
			c-1.973,0.781-3.555,2.313-4.398,4.258c-0.84,1.953-0.875,4.148-0.094,6.125l23.563,59.508c1.625,4.102,6.273,6.125,10.383,4.492
			l21.344-8.453c3.598,4.125,7.473,7.992,11.586,11.586l-8.445,21.344c-1.625,4.109,0.387,8.758,4.492,10.383l59.512,23.555
			c0.949,0.375,1.945,0.563,2.945,0.563c1.082,0,2.164-0.219,3.18-0.656c1.945-0.844,3.48-2.43,4.258-4.398l8.426-21.289
			c2.938,0.141,5.93,0.141,8.875,0l8.43,21.281c1.621,4.102,6.273,6.133,10.383,4.492l59.504-23.563
			C235.12,362.718,237.132,358.069,235.503,353.96z"/>
	</g>
</g>
<g>
	<g>
		<path d="M164.011,255.882c-4.555,5.164-11.117,8.125-18,8.125c-13.234,0-24-10.766-24-24s10.766-24,24-24
			c2.031,0,4.055,0.258,6.012,0.758l3.977-15.5c-3.258-0.836-6.617-1.258-9.988-1.258c-22.055,0-40,17.945-40,40s17.945,40,40,40
			c11.473,0,22.41-4.938,30-13.547L164.011,255.882z"/>
	</g>
</g>
<g>
	<g>
		<path d="M471.593,83.944c-9.672-26.586-29.984-48.547-55.734-60.25L365.319,0.726c-2.891-1.328-6.297-0.805-8.66,1.336
			c-2.367,2.125-3.242,5.453-2.238,8.477l30.625,91.867l-26.352,32.938l-39-6.5l-38.301-91.914
			c-1.055-2.531-3.332-4.344-6.039-4.805c-2.707-0.469-5.457,0.492-7.289,2.531l-10.98,12.203
			c-38.473,42.75-53.367,100.773-40.496,156.484l-49.73,21.313c-2.582,1.109-4.398,3.492-4.773,6.273
			c-0.379,2.789,0.734,5.57,2.93,7.328l4.004,3.203c38.898,31.117,67.148,72.742,81.699,120.375
			c4.84,15.836,7.293,33.359,7.293,52.094v58.078c0,4.422,3.582,8,8,8h104c4.418,0,8-3.578,8-8v-79.531l4.113-34.977
			c7.563-64.242,33.457-124.445,75.191-174.492C478.401,154.39,483.737,117.359,471.593,83.944z M444.729,173.14
			c-43.426,52.047-70.57,115.156-78.496,182.484l-4.168,35.445c-0.035,0.313-0.055,0.625-0.055,0.938v72h-16v-88h-16v88h-24v-88h-16
			v88h-16v-50.078c0-20.32-2.688-39.422-7.988-56.766c-14.703-48.125-42.531-90.492-80.719-123.008l43.859-18.797
			c3.668-1.57,5.617-5.609,4.566-9.453c-14.309-52.469-1.129-107.922,35.246-148.344l2.52-2.797l35.133,84.32
			c1.059,2.539,3.352,4.359,6.066,4.813l23.733,3.956l-89.995,44.998l7.156,14.313l112-56l-0.031-0.063
			c1.019-0.504,1.961-1.171,2.699-2.094l32-40c1.695-2.125,2.203-4.953,1.344-7.531l-26.199-78.594l33.84,15.375
			c21.859,9.938,39.102,28.586,47.313,51.156C466.866,117.78,462.335,149.218,444.729,173.14z"/>
	</g>
</g>
<g>
	<g>
		<path d="M361.601,293.476l-24-72c-0.715-2.141-2.297-3.875-4.359-4.789c-2.066-0.906-4.414-0.914-6.48,0.008l-72,32
			c-3.766,1.672-5.641,5.938-4.34,9.844l24,72c0.715,2.141,2.297,3.875,4.359,4.789c1.031,0.453,2.129,0.68,3.23,0.68
			c1.105,0,2.215-0.227,3.25-0.688l72-32C361.026,301.648,362.901,297.382,361.601,293.476z M286.815,317.116l-18.918-56.75
			l3.072-1.365L300,311.257L286.815,317.116z M314.676,304.735l-29.031-52.256l8.388-3.728l31.876,50.991L314.676,304.735z
			 M340.679,293.179l-31.876-50.992l16.403-7.29l18.918,56.75L340.679,293.179z"/>
	</g>
</g>
<g>
	<g>
		<rect x="352.463" y="215.984" transform="matrix(0.9284 -0.3715 0.3715 0.9284 -56.4416 154.9587)" width="43.08" height="16"/>
	</g>
</g>
<g>
</g>
<g>
</g>
<g>
</g>
<g>
</g>
<g>
</g>
<g>
</g>
<g>
</g>
<g>
</g>
<g>
</g>
<g>
</g>
<g>
</g>
<g>
</g>
<g>
</g>
<g>
</g>
<g>
</g>
</svg>
