<?xml version="1.0" encoding="iso-8859-1"?>
<!-- Generator: Adobe Illustrator 19.0.0, SVG Export Plug-In . SVG Version: 6.00 Build 0)  -->
<svg version="1.1" id="Capa_1" xmlns="http://www.w3.org/2000/svg" xmlns:xlink="http://www.w3.org/1999/xlink" x="0px" y="0px"
	 viewBox="0 0 480 480" style="enable-background:new 0 0 480 480;" xml:space="preserve">
<g>
	<g>
		<path d="M479.961,159.999c0.001-2.647-1.279-5.187-3.578-6.691l-232-152c-2.656-1.742-6.109-1.742-8.766,0l-232,152
			c-2.299,1.504-3.579,4.044-3.578,6.691H0v312c0,4.418,3.578,8,8,8h64c4.422,0,8-3.582,8-8v-256h320v256c0,4.418,3.578,8,8,8h64
			c4.422,0,8-3.582,8-8v-312H479.961z M240,17.562l205.195,134.438H34.805L240,17.562z M464,463.999h-48v-256c0-4.418-3.578-8-8-8
			H72c-4.422,0-8,3.582-8,8v256H16v-296h448V463.999z"/>
	</g>
</g>
<g>
	<g>
		<rect x="432" y="223.999" width="16" height="48"/>
	</g>
</g>
<g>
	<g>
		<rect x="32" y="223.999" width="16" height="48"/>
	</g>
</g>
<g>
	<g>
		<path d="M368,375.999v-16h-16.556c-3.957-31.52-30.87-56-63.444-56h-96c-32.574,0-59.487,24.48-63.444,56H112v16h16v9.474
			c-9.292,3.313-16,12.11-16,22.526v32v16c0,13.234,10.766,24,24,24h16c13.234,0,24-10.766,24-24v-8h128v8c0,13.234,10.766,24,24,24
			h16c13.234,0,24-10.766,24-24v-16v-32c0-10.416-6.708-19.213-16-22.526v-9.474H368z M144,367.999c0-26.469,21.531-48,48-48h96
			c26.469,0,48,21.531,48,48v16H144V367.999z M160,455.999c0,4.41-3.586,8-8,8h-16c-4.414,0-8-3.59-8-8v-8h32V455.999z M352,455.999
			c0,4.41-3.586,8-8,8h-16c-4.414,0-8-3.59-8-8v-8h32V455.999z M352,423.999v8h-40H168h-40v-8h24v-16h-24c0-4.41,3.586-8,8-8h208
			c4.414,0,8,3.59,8,8h-24v16H352z"/>
	</g>
</g>
<g>
	<g>
		<path d="M384,231.999H96c-4.422,0-8,3.582-8,8v32c0,4.418,3.578,8,8,8h288c4.422,0,8-3.582,8-8v-32
			C392,235.581,388.422,231.999,384,231.999z M376,263.999H104v-16h272V263.999z"/>
	</g>
</g>
<g>
</g>
<g>
</g>
<g>
</g>
<g>
</g>
<g>
</g>
<g>
</g>
<g>
</g>
<g>
</g>
<g>
</g>
<g>
</g>
<g>
</g>
<g>
</g>
<g>
</g>
<g>
</g>
<g>
</g>
</svg>
