<?xml version="1.0" encoding="iso-8859-1"?>
<!-- Generator: Adobe Illustrator 19.0.0, SVG Export Plug-In . SVG Version: 6.00 Build 0)  -->
<svg version="1.1" id="Capa_1" xmlns="http://www.w3.org/2000/svg" xmlns:xlink="http://www.w3.org/1999/xlink" x="0px" y="0px"
	 viewBox="0 0 480 480" style="enable-background:new 0 0 480 480;" xml:space="preserve">
<g>
	<g>
		<path d="M240,232c-13.234,0-24,10.766-24,24s10.766,24,24,24s24-10.766,24-24S253.234,232,240,232z M240,264c-4.414,0-8-3.59-8-8
			s3.586-8,8-8s8,3.59,8,8S244.414,264,240,264z"/>
	</g>
</g>
<g>
	<g>
		<path d="M420.867,413.664C459.078,369.918,480,314.355,480,256c0-132.336-107.664-240-240-240S0,123.664,0,256
			c0,56.945,19.93,111.258,56.422,154.508C46.742,414.918,40,424.688,40,436c0,15.438,12.563,28,28,28h336c15.438,0,28-12.563,28-28
			C432,426.887,427.625,418.781,420.867,413.664z M404,448H134.948l7.708-11.563l-13.313-8.875L115.719,448H68
			c-6.617,0-12-5.383-12-12s5.383-12,12-12h4.094H96v-16H75.628c-8.809-9.516-16.734-19.658-23.679-30.352l16.488-10.992
			l-8.875-13.313l-15.817,10.545C26.94,333.429,17.438,299.361,16.19,264H40v-16H16.203c1.276-36.101,11.098-70.054,27.559-99.877
			l15.801,10.534l8.875-13.313l-16.412-10.941c17.212-26.516,39.861-49.165,66.377-66.377l10.941,16.412l13.313-8.875
			l-10.534-15.801c29.823-16.46,63.776-26.283,99.877-27.559V48h16V32.203c36.101,1.276,70.054,11.098,99.877,27.559l-10.534,15.801
			l13.313,8.875l10.941-16.412c26.516,17.212,49.165,39.861,66.377,66.377l-16.412,10.941l8.875,13.313l15.801-10.534
			c16.46,29.823,26.283,63.776,27.559,99.877H440v16h23.813c-1.247,35.374-10.731,69.448-27.536,99.904l-15.84-10.56l-8.875,13.313
			l16.465,10.977c-6.938,10.682-14.781,20.859-23.579,30.367H352v16h52c0.727,0,1.438,0.102,2.125,0.23
			c0.211,0.035,0.422,0.066,0.625,0.086c5.297,1.25,9.25,6.012,9.25,11.684C416,442.617,410.617,448,404,448z"/>
	</g>
</g>
<g>
	<g>
		<path d="M240,88c-92.633,0-168,75.363-168,168s75.367,168,168,168s168-75.363,168-168S332.633,88,240,88z M366.85,172.463
			c10.21,15.453,17.672,32.854,21.694,51.537h-49.685c-1.844-5.719-4.188-11.254-6.992-16.555L366.85,172.463z M272,107.456
			c18.683,4.022,36.084,11.484,51.537,21.694l-34.982,34.982c-5.305-2.805-10.844-5.145-16.555-6.992V107.456z M208,107.456v49.688
			c-5.711,1.844-11.25,4.184-16.555,6.988l-34.982-34.982C171.916,118.94,189.317,111.478,208,107.456z M113.15,172.463
			l34.982,34.982c-2.805,5.301-5.148,10.836-6.992,16.555H91.456C95.478,205.317,102.94,187.916,113.15,172.463z M113.15,339.537
			C102.94,324.084,95.478,306.683,91.456,288h49.685c1.844,5.715,4.188,11.25,6.992,16.555L113.15,339.537z M208,404.544
			c-18.683-4.022-36.084-11.484-51.537-21.694l34.982-34.982c5.305,2.805,10.844,5.145,16.555,6.988V404.544z M272,404.544v-49.688
			c5.711-1.844,11.25-4.184,16.555-6.988l34.982,34.982C308.084,393.06,290.683,400.522,272,404.544z M366.85,339.537
			l-34.982-34.982c2.805-5.305,5.148-10.84,6.992-16.555h49.685C384.522,306.683,377.06,324.084,366.85,339.537z M332.852,272
			c-3.648,0-6.836,2.469-7.75,6.004c-2.156,8.375-5.531,16.359-10.031,23.723c-1.922,3.152-1.445,7.215,1.172,9.828l41.035,41.035
			c-6.22,7.538-13.149,14.468-20.688,20.688l-41.035-41.035c-2.617-2.621-6.672-3.102-9.828-1.172
			c-7.375,4.504-15.352,7.879-23.719,10.035c-3.539,0.91-6.008,4.098-6.008,7.746v58.289c-5.261,0.553-10.595,0.86-16,0.86
			s-10.739-0.307-16-0.86v-58.289c0-3.648-2.469-6.836-6.008-7.746c-8.367-2.156-16.344-5.531-23.719-10.035
			c-3.164-1.93-7.219-1.449-9.828,1.172l-41.035,41.035c-7.538-6.22-14.468-13.149-20.688-20.688l41.035-41.035
			c2.617-2.613,3.094-6.676,1.172-9.828c-4.5-7.363-7.875-15.348-10.031-23.723c-0.914-3.535-4.102-6.004-7.75-6.004H88.86
			c-0.553-5.261-0.86-10.595-0.86-16s0.307-10.739,0.86-16h58.289c3.648,0,6.836-2.469,7.75-6.004
			c2.156-8.383,5.531-16.363,10.031-23.723c1.922-3.152,1.445-7.215-1.172-9.828l-41.035-41.035
			c6.22-7.538,13.149-14.468,20.688-20.688l41.035,41.035c1.539,1.543,3.594,2.344,5.656,2.344c1.438,0,2.875-0.383,4.172-1.172
			c7.375-4.504,15.352-7.879,23.719-10.035c3.539-0.91,6.008-4.098,6.008-7.746V104.86c5.261-0.553,10.595-0.86,16-0.86
			s10.739,0.307,16,0.86v58.285c0,3.648,2.469,6.836,6,7.746c8.375,2.16,16.359,5.539,23.727,10.039
			c1.297,0.789,2.734,1.172,4.172,1.172c2.063,0,4.117-0.801,5.656-2.344l41.035-41.035c7.538,6.22,14.468,13.149,20.688,20.688
			l-41.035,41.035c-2.617,2.613-3.094,6.676-1.172,9.828c4.5,7.359,7.875,15.34,10.031,23.723c0.914,3.535,4.102,6.004,7.75,6.004
			h58.289c0.553,5.261,0.86,10.595,0.86,16s-0.307,10.739-0.86,16H332.852z"/>
	</g>
</g>
<g>
	<g>
		<path d="M240,184c-39.703,0-72,32.301-72,72s32.297,72,72,72s72-32.301,72-72S279.703,184,240,184z M240,312
			c-30.875,0-56-25.121-56-56s25.125-56,56-56s56,25.121,56,56S270.875,312,240,312z"/>
	</g>
</g>
<g>
</g>
<g>
</g>
<g>
</g>
<g>
</g>
<g>
</g>
<g>
</g>
<g>
</g>
<g>
</g>
<g>
</g>
<g>
</g>
<g>
</g>
<g>
</g>
<g>
</g>
<g>
</g>
<g>
</g>
</svg>
