<?xml version="1.0" encoding="iso-8859-1"?>
<!-- Generator: Adobe Illustrator 19.0.0, SVG Export Plug-In . SVG Version: 6.00 Build 0)  -->
<svg version="1.1" id="Capa_1" xmlns="http://www.w3.org/2000/svg" xmlns:xlink="http://www.w3.org/1999/xlink" x="0px" y="0px"
	 viewBox="0 0 480 480" style="enable-background:new 0 0 480 480;" xml:space="preserve">
<g>
	<g>
		<path d="M472,68h-24V36c0-4.418-3.578-8-8-8h-64c-4.422,0-8,3.582-8,8v32h-32V36c0-4.418-3.578-8-8-8h-64c-4.422,0-8,3.582-8,8v32
			h-32V36c0-4.418-3.578-8-8-8h-64c-4.422,0-8,3.582-8,8v32h-32V36c0-4.418-3.578-8-8-8H40c-4.422,0-8,3.582-8,8v32H8
			c-4.422,0-8,3.582-8,8v368c0,4.418,3.578,8,8,8h464c4.422,0,8-3.582,8-8V76C480,71.582,476.422,68,472,68z M384,44h48v24h-48V44z
			 M272,44h48v24h-48V44z M160,44h48v24h-48V44z M48,44h48v24H48V44z M464,436H16V164h448V436z M464,148H16V84h448V148z"/>
	</g>
</g>
<g>
	<g>
		<path d="M432,180H48c-4.422,0-8,3.582-8,8v224c0,4.418,3.578,8,8,8h384c4.422,0,8-3.582,8-8V188C440,183.582,436.422,180,432,180z
			 M424,404H56V196h368V404z"/>
	</g>
</g>
<g>
	<g>
		<path d="M303.055,280.227C301.664,277.625,298.953,276,296,276h-30.938l6.875-55.008c0.469-3.77-1.773-7.352-5.375-8.57
			c-3.586-1.211-7.555,0.27-9.477,3.547l-56,96c-1.438,2.477-1.453,5.531-0.023,8.016S205.133,324,208,324h29.75l-13.508,54.059
			c-0.945,3.777,0.961,7.684,4.523,9.258c1.047,0.461,2.141,0.684,3.234,0.684c2.602,0,5.133-1.277,6.656-3.563l64-96
			C304.289,285.984,304.445,282.828,303.055,280.227z M250.961,337.133l4.797-19.191c0.602-2.391,0.063-4.922-1.453-6.863
			S250.461,308,248,308h-26.07l29.281-50.203l-3.148,25.211c-0.289,2.277,0.422,4.566,1.938,6.285c1.523,1.723,3.703,2.707,6,2.707
			h25.055L250.961,337.133z"/>
	</g>
</g>
<g>
</g>
<g>
</g>
<g>
</g>
<g>
</g>
<g>
</g>
<g>
</g>
<g>
</g>
<g>
</g>
<g>
</g>
<g>
</g>
<g>
</g>
<g>
</g>
<g>
</g>
<g>
</g>
<g>
</g>
</svg>
