<?xml version="1.0" encoding="iso-8859-1"?>
<!-- Generator: Adobe Illustrator 19.0.0, SVG Export Plug-In . SVG Version: 6.00 Build 0)  -->
<svg version="1.1" id="Capa_1" xmlns="http://www.w3.org/2000/svg" xmlns:xlink="http://www.w3.org/1999/xlink" x="0px" y="0px"
	 viewBox="0 0 480 480" style="enable-background:new 0 0 480 480;" xml:space="preserve">
<g>
	<g>
		<path d="M458.117,330.945l-79.023-26.344c-14.781-4.93-28.117-13.617-38.586-25.141l-50.688-55.75
			C280.734,213.727,267.789,208,254.305,208H88.719c-18.297,0-34.75,10.164-42.93,26.531l-33.805,67.609
			C4.141,317.82,0,335.383,0,352.914V408c0,17.648,14.352,32,32,32h26.359c6.906,23.1,28.328,40,53.641,40
			c28.152,0,51.457-20.91,55.361-48h145.278c3.904,27.09,27.209,48,55.361,48c25.313,0,46.735-16.9,53.641-40H448
			c17.648,0,32-14.352,32-32v-46.703C480,347.5,471.203,335.305,458.117,330.945z M112,464c-22.055,0-40-17.945-40-40
			s17.945-40,40-40s40,17.945,40,40S134.055,464,112,464z M368,464c-22.055,0-40-17.945-40-40s17.945-40,40-40s40,17.945,40,40
			S390.055,464,368,464z M464,408c0,8.82-7.18,16-16,16h-24c0-30.875-25.125-56-56-56c-28.152,0-51.457,20.91-55.361,48H167.361
			c-3.904-27.09-27.209-48-55.361-48c-30.875,0-56,25.125-56,56H32c-8.82,0-16-7.18-16-16v-55.086
			c0-15.063,3.563-30.148,10.297-43.617l33.805-67.609C65.555,230.773,76.523,224,88.719,224h165.586
			c8.992,0,17.625,3.82,23.68,10.477l50.68,55.75c12.313,13.547,28,23.766,45.367,29.547l79.023,26.352
			c6.547,2.18,10.945,8.273,10.945,15.172V408z"/>
	</g>
</g>
<g>
	<g>
		<path d="M240,24h-72V0h-16v24H80c-4.422,0-8,3.578-8,8v32c0,4.422,3.578,8,8,8h40v56h16V72h48v32h16V72h40c4.422,0,8-3.578,8-8V32
			C248,27.578,244.422,24,240,24z M232,56H88V40h144V56z"/>
	</g>
</g>
<g>
	<g>
		<rect x="88" y="88" width="16" height="24"/>
	</g>
</g>
<g>
	<g>
		<rect x="88" y="128" width="16" height="16"/>
	</g>
</g>
<g>
	<g>
		<rect x="88" y="160" width="16" height="16"/>
	</g>
</g>
<g>
	<g>
		<rect x="120" y="144" width="16" height="16"/>
	</g>
</g>
<g>
	<g>
		<rect x="120" y="176" width="16" height="16"/>
	</g>
</g>
<g>
	<g>
		<rect x="152" y="88" width="16" height="24"/>
	</g>
</g>
<g>
	<g>
		<rect x="152" y="128" width="16" height="32"/>
	</g>
</g>
<g>
	<g>
		<rect x="152" y="176" width="16" height="16"/>
	</g>
</g>
<g>
	<g>
		<rect x="184" y="120" width="16" height="16"/>
	</g>
</g>
<g>
	<g>
		<rect x="184" y="152" width="16" height="24"/>
	</g>
</g>
<g>
	<g>
		<rect x="216" y="88" width="16" height="24"/>
	</g>
</g>
<g>
	<g>
		<rect x="216" y="128" width="16" height="32"/>
	</g>
</g>
<g>
	<g>
		<rect x="216" y="176" width="16" height="16"/>
	</g>
</g>
<g>
	<g>
		<path d="M309.656,298.344l-48-48c-1.5-1.5-3.531-2.344-5.656-2.344H80c-3.445,0-6.5,2.203-7.586,5.469l-16,48
			c-0.82,2.438-0.406,5.125,1.094,7.211C59.016,310.766,61.43,312,64,312h240c3.234,0,6.156-1.945,7.391-4.938
			C312.633,304.07,311.945,300.633,309.656,298.344z M75.102,296l10.664-32h166.922l32,32H75.102z"/>
	</g>
</g>
<g>
	<g>
		<path d="M112,400c-13.234,0-24,10.766-24,24s10.766,24,24,24s24-10.766,24-24S125.234,400,112,400z M112,432c-4.414,0-8-3.586-8-8
			s3.586-8,8-8s8,3.586,8,8S116.414,432,112,432z"/>
	</g>
</g>
<g>
	<g>
		<path d="M368,400c-13.234,0-24,10.766-24,24s10.766,24,24,24s24-10.766,24-24S381.234,400,368,400z M368,432c-4.414,0-8-3.586-8-8
			s3.586-8,8-8s8,3.586,8,8S372.414,432,368,432z"/>
	</g>
</g>
<g>
</g>
<g>
</g>
<g>
</g>
<g>
</g>
<g>
</g>
<g>
</g>
<g>
</g>
<g>
</g>
<g>
</g>
<g>
</g>
<g>
</g>
<g>
</g>
<g>
</g>
<g>
</g>
<g>
</g>
</svg>
