<?xml version="1.0" encoding="iso-8859-1"?>
<!-- Generator: Adobe Illustrator 19.0.0, SVG Export Plug-In . SVG Version: 6.00 Build 0)  -->
<svg version="1.1" id="Capa_1" xmlns="http://www.w3.org/2000/svg" xmlns:xlink="http://www.w3.org/1999/xlink" x="0px" y="0px"
	 viewBox="0 0 480 480" style="enable-background:new 0 0 480 480;" xml:space="preserve">
<g>
	<g>
		<path d="M472,48c4.418,0,8-3.582,8-8V8c0-4.418-3.582-8-8-8H264h-48H8C3.582,0,0,3.582,0,8v32c0,4.418,3.582,8,8,8h200v16h-90.336
			c-16.453,0-31.031,9.871-37.141,25.145l-38.027,95.074C0,187.691,0,231.84,0,256v64c0,4.418,3.582,8,8,8h32.723
			c3.827,22.665,23.54,40,47.277,40s43.451-17.335,47.277-40H208v144c0,4.418,3.582,8,8,8h48c4.418,0,8-3.582,8-8V328h48.723
			c3.827,22.665,23.54,40,47.277,40s43.451-17.335,47.277-40H472c4.418,0,8-3.582,8-8v-64c0-39.699-32.301-72-72-72h-42.234
			l-30.883-92.652C329.43,74.992,314.18,64,296.938,64H272V48H472z M272,16h192v16H272V16z M88,352c-17.645,0-32-14.355-32-32
			s14.355-32,32-32s32,14.355,32,32S105.645,352,88,352z M208,184H106.754l19.199-64H208V184z M208,104h-88
			c-3.531,0-6.648,2.316-7.664,5.703l-24,80c-0.727,2.422-0.266,5.043,1.246,7.074C91.09,198.805,93.473,200,96,200h112v112h-72.723
			c-3.827-22.665-23.54-40-47.277-40s-43.451,17.335-47.277,40H16v-56c0-41.867,8.074-56,32-56c3.27,0,6.211-1.992,7.43-5.027
			l39.953-99.887C99.047,85.922,107.793,80,117.664,80H208V104z M208,32H16V16h192V32z M256,464h-32V16h32V464z M272,120h18.047
			l19.199,64H272V120z M368,352c-17.645,0-32-14.355-32-32s14.355-32,32-32s32,14.355,32,32S385.645,352,368,352z M463.361,248
			c0.377,2.62,0.639,5.277,0.639,8v24h-24v-32H463.361z M296.938,80c10.344,0,19.496,6.594,22.766,16.41l32.707,98.121
			c1.09,3.266,4.145,5.469,7.59,5.469h48c22.283,0,41.51,13.114,50.52,32H432c-4.418,0-8,3.582-8,8v48c0,4.418,3.582,8,8,8h32v16
			h-48.723c-3.827-22.665-23.54-40-47.277-40s-43.451,17.335-47.277,40H272V200h48c2.527,0,4.91-1.195,6.418-3.223
			c1.512-2.031,1.973-4.652,1.246-7.074l-24-80C302.648,106.316,299.531,104,296,104h-24V80H296.938z"/>
	</g>
</g>
<g>
	<g>
		<path d="M134.145,434.879l-40-48c-3.039-3.648-9.25-3.648-12.289,0l-40,48c-1.988,2.383-2.418,5.703-1.102,8.516
			C42.07,446.203,44.895,448,48,448h8v24c0,4.418,3.582,8,8,8h48c4.418,0,8-3.582,8-8v-24h8c3.105,0,5.93-1.797,7.246-4.605
			C136.563,440.582,136.133,437.262,134.145,434.879z M104,440v24H72v-24c0-4.07-3.039-7.43-6.973-7.934L88,404.496l22.973,27.57
			C107.039,432.57,104,435.93,104,440z"/>
	</g>
</g>
<g>
	<g>
		<path d="M414.145,434.879l-40-48c-3.039-3.648-9.25-3.648-12.289,0l-40,48c-1.988,2.383-2.418,5.703-1.102,8.516
			C322.07,446.203,324.895,448,328,448h8v24c0,4.418,3.582,8,8,8h48c4.418,0,8-3.582,8-8v-24h8c3.105,0,5.93-1.797,7.246-4.605
			C416.563,440.582,416.133,437.262,414.145,434.879z M384,440v24h-32v-24c0-4.07-3.039-7.43-6.973-7.934L368,404.496l22.973,27.57
			C387.039,432.57,384,435.93,384,440z"/>
	</g>
</g>
<g>
</g>
<g>
</g>
<g>
</g>
<g>
</g>
<g>
</g>
<g>
</g>
<g>
</g>
<g>
</g>
<g>
</g>
<g>
</g>
<g>
</g>
<g>
</g>
<g>
</g>
<g>
</g>
<g>
</g>
</svg>
