<?xml version="1.0" encoding="iso-8859-1"?>
<!-- Generator: Adobe Illustrator 19.0.0, SVG Export Plug-In . SVG Version: 6.00 Build 0)  -->
<svg version="1.1" id="Capa_1" xmlns="http://www.w3.org/2000/svg" xmlns:xlink="http://www.w3.org/1999/xlink" x="0px" y="0px"
	 viewBox="0 0 464 464" style="enable-background:new 0 0 464 464;" xml:space="preserve">
<g>
	<g>
		<path d="M224,128c-57.344,0-104,46.652-104,104s46.656,104,104,104s104-46.652,104-104S281.344,128,224,128z M224,320
			c-48.523,0-88-39.477-88-88s39.477-88,88-88s88,39.477,88,88S272.523,320,224,320z"/>
	</g>
</g>
<g>
	<g>
		<path d="M224,192c-22.055,0-40,17.945-40,40s17.945,40,40,40s40-17.945,40-40S246.055,192,224,192z M224,256
			c-13.234,0-24-10.766-24-24s10.766-24,24-24s24,10.766,24,24S237.234,256,224,256z"/>
	</g>
</g>
<g>
	<g>
		<rect x="216" y="160" width="16" height="16"/>
	</g>
</g>
<g>
	<g>
		<rect x="280" y="208" width="16" height="16"/>
	</g>
</g>
<g>
	<g>
		<rect x="152" y="208" width="16" height="16"/>
	</g>
</g>
<g>
	<g>
		<rect x="176" y="280" width="16" height="16"/>
	</g>
</g>
<g>
	<g>
		<rect x="256" y="280" width="16" height="16"/>
	</g>
</g>
<g>
	<g>
		<path d="M224,352c-66.172,0-120-53.832-120-120s53.828-120,120-120c5.023,0,10.078,0.313,15.008,0.93l1.984-15.875
			C235.406,96.355,229.688,96,224,96c-74.992,0-136,61.008-136,136s61.008,136,136,136c5.688,0,11.406-0.355,16.992-1.055
			l-1.984-15.875C234.078,351.688,229.023,352,224,352z"/>
	</g>
</g>
<g>
	<g>
		<path d="M348.805,26.98c-3.516-2.156-8.086-1.266-10.563,2.027l-5.461,7.281c-3.144-1.75-6.319-3.423-9.536-5.015
			c-0.59-0.342-1.216-0.592-1.829-0.88C291.175,15.771,257.945,8,224,8C100.484,8,0,108.484,0,232s100.484,224,224,224
			c83.542,0,158.654-45.441,197.709-118.894l7.689,3.519c1.078,0.496,2.211,0.727,3.32,0.727c2.969,0,5.82-1.66,7.203-4.5
			C455.898,304.008,464,268.73,464,232C464,147.621,420.938,70.977,348.805,26.98z M313.872,44.506
			c0.191,0.092,0.382,0.183,0.572,0.275c0.635,0.283,1.265,0.59,1.821,1.043l5.804,4.748l-29.223,38.965l-13.636-13.639
			c-2.297-2.305-2.43-4.984-2.305-6.375c0.125-1.395,0.734-4.004,3.414-5.859l26.328-18.23
			C308.798,43.948,311.498,43.669,313.872,44.506z M224,440c-114.695,0-208-93.309-208-208S109.305,24,224,24
			c23.539,0,46.717,4.009,68.648,11.667l-21.438,14.841c-5.867,4.063-9.602,10.469-10.242,17.574
			c-0.641,7.109,1.883,14.082,6.93,19.129l15.252,15.255l-2.237,2.983c-6.547,8.723-5.664,21.113,2.047,28.824l42.406,42.41
			c4.891,4.891,11.883,7.234,18.719,6.242c4.148-0.594,5.953,2.551,6.391,3.535c0.438,0.98,1.602,4.391-1.664,7.109l-5.523,4.605
			c-4.461,3.727-7.242,8.961-7.82,14.746l-6.539,65.406c-0.813,8.072,2.975,15.952,9.663,20.462
			c-2.574,3.888-3.968,8.44-3.968,13.209c0,6.41,2.5,12.438,7.031,16.969l22.281,22.277c4.703,4.703,10.813,7.082,16.953,7.082
			c3.439,0,6.857-0.837,10.068-2.339C352.144,408.495,290.998,440,224,440z M386.078,340.383c-3.211,2.699-7.859,2.508-10.828-0.449
			l-22.281-22.281c-1.516-1.508-2.344-3.516-2.344-5.652s0.828-4.145,2.344-5.656l0.476-0.476l47.647,21.804L386.078,340.383z
			 M428.828,322.77l-81.367-37.234c-1.813-1.238-2.836-3.398-2.609-5.605l6.539-65.414c0.156-1.59,0.922-3.027,2.148-4.051
			l5.516-4.605c7.664-6.379,10.094-16.789,6.039-25.898c-4.047-9.109-13.328-14.277-23.273-12.871
			c-1.875,0.262-3.789-0.375-5.133-1.715l-42.414-42.414c-2.117-2.117-2.359-5.516-0.563-7.91l52.898-70.535
			c4.495,2.939,8.825,6.052,13.058,9.262l-37.738,50.32c-7.125,9.496-6.172,22.984,2.227,31.371l8.531,8.535
			c5.328,5.309,12.93,7.875,20.367,6.781l15.219-2.172c15.344-2.168,30.453,6.754,35.891,21.273
			c5.773,15.383-0.391,32.461-14.656,40.613l-17.414,9.949C364.633,224.711,360,232.695,360,241.285v11.883
			c0,9.867,5.922,18.617,15.086,22.285l62.285,24.913C434.934,307.948,432.096,315.423,428.828,322.77z M446.731,256
			c-1.032,9.764-2.76,19.378-5.056,28.853l-60.644-24.255c-3.055-1.223-5.031-4.141-5.031-7.43v-11.883
			c0-2.863,1.547-5.523,4.031-6.945l17.414-9.949c21.117-12.066,30.242-37.352,21.703-60.121
			c-8.063-21.496-30.43-34.766-53.141-31.492l-15.219,2.172c-2.492,0.328-5.016-0.488-6.789-2.262l-8.531-8.535
			c-2.797-2.793-3.117-7.289-0.742-10.453l37.328-49.773c5.639,4.942,11.028,10.107,16.097,15.532l-41.277,34.397l10.25,12.289
			l41.548-34.624C430.276,130.637,448,179.723,448,232c0,2.679-0.112,5.338-0.204,8H392v16H446.731z"/>
	</g>
</g>
<g>
	<g>
		<path d="M314,311.371c-8.633,9.789-18.734,18.059-30.008,24.578l8.016,13.852c12.773-7.391,24.211-16.758,33.992-27.844
			L314,311.371z"/>
	</g>
</g>
<g>
</g>
<g>
</g>
<g>
</g>
<g>
</g>
<g>
</g>
<g>
</g>
<g>
</g>
<g>
</g>
<g>
</g>
<g>
</g>
<g>
</g>
<g>
</g>
<g>
</g>
<g>
</g>
<g>
</g>
</svg>
