<?xml version="1.0" encoding="iso-8859-1"?>
<!-- Generator: Adobe Illustrator 19.0.0, SVG Export Plug-In . SVG Version: 6.00 Build 0)  -->
<svg version="1.1" id="Capa_1" xmlns="http://www.w3.org/2000/svg" xmlns:xlink="http://www.w3.org/1999/xlink" x="0px" y="0px"
	 viewBox="0 0 480 480" style="enable-background:new 0 0 480 480;" xml:space="preserve">
<g>
	<g>
		<path d="M288,264H155.313l122.344-122.344l-11.313-11.313L139.496,257.191L103.59,149.469C102.5,146.203,99.445,144,96,144H0v16
			h90.234l38.176,114.531c1.09,3.266,4.145,5.469,7.59,5.469h152c22.283,0,41.51,13.114,50.52,32H288c-4.418,0-8,3.582-8,8v48
			c0,4.418,3.582,8,8,8h56v16h-72.639c-3.902-27.093-27.206-48-55.361-48s-51.459,20.907-55.361,48H0v16h160.639
			c3.902,27.093,27.206,48,55.361,48s51.459-20.907,55.361-48H352c4.418,0,8-3.582,8-8v-64C360,296.301,327.699,264,288,264z
			 M216,440c-22.055,0-40-17.945-40-40s17.945-40,40-40s40,17.945,40,40S238.055,440,216,440z M344,360h-48v-32h47.361
			c0.377,2.62,0.639,5.277,0.639,8V360z"/>
	</g>
</g>
<g>
	<g>
		<path d="M95.664,269.703l-24-80C70.648,186.316,67.531,184,64,184H0v16h58.047l19.199,64H0v16h88c2.527,0,4.91-1.195,6.418-3.223
			C95.93,274.746,96.391,272.125,95.664,269.703z"/>
	</g>
</g>
<g>
	<g>
		<rect y="304" width="40" height="16"/>
	</g>
</g>
<g>
	<g>
		<path d="M480,84c0-33.086-26.914-60-60-60h-6.52c-25.867,0-48.742,16.488-56.922,41.023l-12.148,36.445l15.18,5.063l12.148-36.445
			C377.738,52.09,394.512,40,413.48,40H420c24.262,0,44,19.738,44,44s-19.738,44-44,44h-36c-3.234,0-6.152,1.949-7.391,4.938
			c-1.238,2.992-0.555,6.43,1.734,8.719l33.09,33.09C419.535,182.852,424,193.625,424,205.09c0,23.66-19.25,42.91-42.91,42.91
			c-11.465,0-22.238-4.465-30.344-12.566c-17.563-17.559-43.664-22.598-66.512-12.809l-23.387,10.023l6.305,14.703l23.387-10.023
			c16.781-7.176,35.98-3.496,48.895,9.418C350.559,257.871,365.352,264,381.09,264c32.484,0,58.91-26.426,58.91-58.91
			c0-15.738-6.129-30.531-17.254-41.656L403.313,144H420C453.086,144,480,117.086,480,84z"/>
	</g>
</g>
<g>
	<g>
		<path d="M260.801,190.402l-25.602,19.199l9.602,12.797l25.602-19.199C293.789,185.66,322.766,176,352,176v-16
			C319.328,160,286.938,170.797,260.801,190.402z"/>
	</g>
</g>
<g>
	<g>
		<path d="M304,24c-30.879,0-56,25.121-56,56c0,17.645,14.355,32,32,32c8.824,0,16,7.176,16,16v8h16v-8c0-17.645-14.355-32-32-32
			c-8.824,0-16-7.176-16-16c0-22.055,17.945-40,40-40c8.824,0,16,7.176,16,16v16h16V56C336,38.355,321.645,24,304,24z"/>
	</g>
</g>
<g>
</g>
<g>
</g>
<g>
</g>
<g>
</g>
<g>
</g>
<g>
</g>
<g>
</g>
<g>
</g>
<g>
</g>
<g>
</g>
<g>
</g>
<g>
</g>
<g>
</g>
<g>
</g>
<g>
</g>
</svg>
