<?xml version="1.0" encoding="iso-8859-1"?>
<!-- Generator: Adobe Illustrator 19.0.0, SVG Export Plug-In . SVG Version: 6.00 Build 0)  -->
<svg version="1.1" id="Capa_1" xmlns="http://www.w3.org/2000/svg" xmlns:xlink="http://www.w3.org/1999/xlink" x="0px" y="0px"
	 viewBox="0 0 480 480" style="enable-background:new 0 0 480 480;" xml:space="preserve">
<g>
	<g>
		<path d="M400,368h-72v-63.913c18.456-20.729,29.95-47.342,31.75-76.165H360c8.738,0,17.199-3.637,23.215-9.977
			c6.102-6.43,9.203-14.855,8.738-23.73c-0.762-14.563-11.621-26.418-25.914-29.508L360,95.662V48c0-26.469-21.531-48-48-48H168
			c-26.469,0-48,21.531-48,48v47.662l-6.039,69.045c-14.293,3.09-25.152,14.945-25.914,29.508
			c-0.465,8.875,2.637,17.301,8.738,23.73c6.016,6.34,14.477,9.977,23.215,9.977h0.25c1.8,28.817,13.293,55.428,31.75,76.159V368H80
			c-30.879,0-56,25.121-56,56v48c0,4.418,3.582,8,8,8h416c4.418,0,8-3.582,8-8v-48C456,393.121,430.879,368,400,368z M80,464H40v-40
			c0-22.055,17.945-40,40-40V464z M136,48c0-17.645,14.355-32,32-32h144c17.645,0,32,14.355,32,32v40H136V48z M135.332,104h209.336
			l0.896,10.233c-66.349,33.597-144.778,33.597-211.127,0L135.332,104z M136,219.922c0-4.418-3.582-8-8-8h-8
			c-4.434,0-8.559-1.773-11.609-4.988s-4.602-7.434-4.367-11.883c0.438-8.344,8.215-15.129,17.336-15.129
			c4.148,0,7.609-3.172,7.969-7.305l3.617-41.335C166.81,147.359,203.385,155.5,240,155.5s73.19-8.141,107.055-24.218l3.617,41.335
			c0.359,4.133,3.82,7.305,7.969,7.305c9.121,0,16.898,6.785,17.336,15.129c0.234,4.449-1.316,8.668-4.367,11.883
			s-7.176,4.988-11.609,4.988h-8c-4.418,0-8,3.605-8,8.023c0,48.043-30.793,90.352-76.621,105.277
			c-23.285,7.574-31.473,7.582-54.734,0.008C166.801,310.305,136,267.984,136,219.922z M136,464H96v-80h40V464z M232,464h-80v-80
			h5.479L232,436.165V464z M168,371.836v-52.717c11.621,9.2,24.953,16.525,39.691,21.323c13.285,4.324,22.793,6.488,32.309,6.488
			s19.035-2.164,32.332-6.496c14.729-4.796,28.054-12.118,39.668-21.312v52.714l-72,50.398L168,371.836z M328,464h-80v-27.835
			L322.521,384H328V464z M384,464h-40v-80h40V464z M440,464h-40v-80c22.055,0,40,17.945,40,40V464z"/>
	</g>
</g>
<g>
	<g>
		<circle cx="184" cy="200" r="16"/>
	</g>
</g>
<g>
	<g>
		<circle cx="296" cy="200" r="16"/>
	</g>
</g>
<g>
	<g>
		<path d="M268.688,264l-6.059,6.059c-12.477,12.477-32.781,12.477-45.258,0L211.313,264L200,275.313l6.059,6.059
			c9.066,9.066,21.121,14.059,33.941,14.059s24.875-4.992,33.941-14.059l6.059-6.059L268.688,264z"/>
	</g>
</g>
<g>
</g>
<g>
</g>
<g>
</g>
<g>
</g>
<g>
</g>
<g>
</g>
<g>
</g>
<g>
</g>
<g>
</g>
<g>
</g>
<g>
</g>
<g>
</g>
<g>
</g>
<g>
</g>
<g>
</g>
</svg>
