<?xml version="1.0" encoding="iso-8859-1"?>
<!-- Generator: Adobe Illustrator 19.0.0, SVG Export Plug-In . SVG Version: 6.00 Build 0)  -->
<svg version="1.1" id="Capa_1" xmlns="http://www.w3.org/2000/svg" xmlns:xlink="http://www.w3.org/1999/xlink" x="0px" y="0px"
	 viewBox="0 0 480 480" style="enable-background:new 0 0 480 480;" xml:space="preserve">
<g>
	<g>
		<path d="M453.672,152.82l-133.875-48.68C310.352,100.707,304,91.641,304,81.586V72V8c0-4.418-3.578-8-8-8h-96
			c-4.422,0-8,3.582-8,8v64v96.962l-32-36.002V88c0-4.418-3.578-8-8-8H72c-4.422,0-8,3.582-8,8v44.96l-53.891,60.63
			C3.586,200.918,0,210.359,0,220.168V472c0,4.418,3.578,8,8,8h208h256c4.422,0,8-3.582,8-8V190.414
			C480,173.656,469.422,158.551,453.672,152.82z M272,16h16v48h-16V16z M240,16h16v48h-16V16z M208,16h16v48h-16V16z M80,96h64v32
			H80V96z M208,464H16V220.168c0-5.887,2.156-11.547,6.063-15.945L75.594,144h72.813l53.531,60.223
			c3.906,4.398,6.063,10.059,6.063,15.945V464z M464,464H224V220.168c0-9.809-3.586-19.25-10.109-26.578L208,186.962V80h80v1.586
			c0,16.758,10.578,31.863,26.328,37.594l133.875,48.68c9.445,3.434,15.797,12.5,15.797,22.555V464z"/>
	</g>
</g>
<g>
	<g>
		<path d="M416,200H264c-13.234,0-24,10.766-24,24v176c0,13.234,10.766,24,24,24h152c13.234,0,24-10.766,24-24V224
			C440,210.766,429.234,200,416,200z M424,400c0,4.41-3.586,8-8,8H302.42c-9.407-14.36-14.42-30.851-14.42-48
			c0-48.523,39.477-88,88-88c17.15,0,33.645,5.013,48,14.421V400z M424,267.851C409.21,260.092,392.877,256,376,256
			c-57.344,0-104,46.652-104,104c0,16.873,4.09,33.209,11.852,48H264c-4.414,0-8-3.59-8-8V224c0-4.41,3.586-8,8-8h152
			c4.414,0,8,3.59,8,8V267.851z"/>
	</g>
</g>
<g>
	<g>
		<path d="M184,232H40c-4.422,0-8,3.582-8,8v192c0,4.418,3.578,8,8,8h144c4.422,0,8-3.582,8-8V240C192,235.582,188.422,232,184,232z
			 M176,424H48V248h128V424z"/>
	</g>
</g>
<g>
	<g>
		<path d="M376,328c-17.648,0-32,14.355-32,32s14.352,32,32,32s32-14.355,32-32S393.648,328,376,328z M376,376
			c-8.82,0-16-7.176-16-16s7.18-16,16-16s16,7.176,16,16S384.82,376,376,376z"/>
	</g>
</g>
<g>
	<g>
		<rect x="64" y="360" width="96" height="16"/>
	</g>
</g>
<g>
</g>
<g>
</g>
<g>
</g>
<g>
</g>
<g>
</g>
<g>
</g>
<g>
</g>
<g>
</g>
<g>
</g>
<g>
</g>
<g>
</g>
<g>
</g>
<g>
</g>
<g>
</g>
<g>
</g>
</svg>
